<?xml version="1.0" encoding="UTF-8"?>
<svg id="Layer_1" xmlns="http://www.w3.org/2000/svg" version="1.1" viewBox="0 0 256 256">
  <!-- Generator: Adobe Illustrator 29.8.1, SVG Export Plug-In . SVG Version: 2.1.1 Build 2)  -->
  <defs>
    <style>
      .st0 {
        fill: #fff;
      }

      .st1 {
        fill: #202020;
      }
    </style>
  </defs>
  <path class="st1" d="M256,128c0,70.7-57.3,128-128,128S0,198.7,0,128,57.3,0,128,0s128,57.3,128,128Z"/>
  <g>
    <path class="st0" d="M86.3,186.2h-15.4v-107.1h15.4v107.1Z"/>
    <path class="st0" d="M108.9,79.1h41.6c39.6,0,57,28.3,57,53.6s-21.5,53.6-56.8,53.6h-41.8s0-107.2,0-107.2ZM124.3,172.4h24.5c34.9,0,42.9-26.5,42.9-39.7,0-21.5-13.7-39.7-43.7-39.7h-23.7v79.4h0Z"/>
    <path class="st0" d="M88.7,56.8c0,5.5-4.5,10.1-10.1,10.1s-10.1-4.6-10.1-10.1,4.5-10.1,10.1-10.1c5.6,0,10.1,4.6,10.1,10.1Z"/>
  </g>
</svg>