<?xml version="1.0" encoding="UTF-8"?>
<svg id="Layer_1" xmlns="http://www.w3.org/2000/svg" version="1.1" viewBox="0 0 250 85">
  <!-- Generator: Adobe Illustrator 29.8.1, SVG Export Plug-In . SVG Version: 2.1.1 Build 2)  -->
  <defs>
    <style>
      .st0 {
        fill: #fff;
      }
    </style>
  </defs>
  <path class="st0" d="M35.4,22c-17.6,0-29.1,12.8-29.1,27.9s11.2,27.9,29,27.9,29.4-13.2,29.4-27.9-11.3-27.9-29.2-27.9ZM145,22c-17.3,0-29.8,12.1-29.8,28.7s8.9,27.1,29.3,27.1,14.3-2,19.7-4.8v-8.5c-6.1,4-12.8,6.1-19,6.1-13.1,0-22-8.4-22-20.6s9.2-20.8,21.7-20.8,12,1.8,18.7,5.7v-8.4c-7.4-3.1-13.1-4.5-18.6-4.5h0ZM73.4,22.7v54.3h7.8v-23.6h3.3c4,0,7.2,1.3,14.4,12.4l7.2,11.2h9.3c-3.7-5.2-5.1-7-7.4-10.8-4.1-6.8-7.2-11.8-12.1-15.1,5.8-2.3,9.1-7,9.1-13.3,0-9.4-6.8-15.2-17.8-15.2h-13.7ZM35.4,29.1c12.2,0,21.2,8.8,21.2,20.7s-9,20.7-21.2,20.7-21.1-8.8-21.1-20.7,9-20.7,21.1-20.7ZM81.2,29.4h5c7.6,0,10.6,3.1,10.7,8.2,0,4.5-2.3,8.8-10.7,8.8h-5v-17Z"/>
  <path class="st0" d="M178.9,6.3c-2.8,0-5.1,2.3-5.1,5.1s2.3,5.1,5.1,5.1,5.1-2.3,5.1-5.1-2.3-5.1-5.1-5.1ZM175,22.7v54.3h7.8V22.7s-7.8,0-7.8,0ZM193.7,22.7v54.3h21.2c17.9,0,28.8-13.2,28.8-27.2s-8.8-27.2-28.9-27.2c0,0-21.1,0-21.1,0ZM201.5,29.7h12c15.2,0,22.1,9.2,22.1,20.2s-4.1,20.2-21.7,20.2h-12.4V29.7Z"/>
</svg>