<?xml version="1.0" encoding="UTF-8"?>
<svg id="Layer_1" xmlns="http://www.w3.org/2000/svg" version="1.1" viewBox="0 0 206.9 206.9">
  <!-- Generator: Adobe Illustrator 29.8.1, SVG Export Plug-In . SVG Version: 2.1.1 Build 2)  -->
  <defs>
    <style>
      .st0 {
        fill: #fff;
        stroke: #000;
        stroke-miterlimit: 10;
      }

      .st1 {
        fill: #202020;
      }
    </style>
  </defs>
  <rect class="st0" width="206.9" height="206.9"/>
  <path class="st1" d="M117,99.1c5.8-1.6,11-4.5,15.6-8.7,10.7-9.7,16-22.6,16-38.7s-1.6-17.1-4.7-24.6c-3.1-7.5-7.5-13.5-13.3-18.2-5.2-4.4-11.3-7.4-18.1-8.9h-36.5v101.5h16c10.8,0,19.1-.8,24.9-2.4h0Z"/>
  <path class="st1" d="M153.8,0c3.9,1.8,7.6,4,11.1,6.8,15.5,11.8,23.2,27.5,23.2,47s-7.8,34.5-23.5,43.8c-8.2,4.8-18.1,7.7-29.7,8.7-3.7.3-12.6.5-26.8.5h-32v58.7c0,11.1.6,19.4,1.9,24.8s3.6,9.8,6.9,13.3c1.2,1.3,2.6,2.4,3.9,3.4h118V0h-53.1,0Z"/>
  <path class="st1" d="M34.9,11c-2.8-4.3-6.4-7.6-10.8-9.7-.9-.5-2-.9-3.1-1.3H0v206.9h27.5c1.4-1,2.7-2.1,4-3.4,3.5-3.5,5.8-7.9,7-13.2s1.8-13.6,1.8-24.8V45c0-9.4-.4-16.6-1.2-21.6-.8-5.1-2.2-9.2-4.2-12.3h0Z"/>
</svg>